# xmcd CD database file
#
# Track frame offsets:
#	150
#	14740
#	28187
#	52382
#	70357
#	86255
#	102370
#	122195
#	138335
#	155697
#	169077
#	185607
#	200975
#	222417
#	232135
#	249062
#
# Disc length: 3500 seconds
#
# Revision: 0
# Processed by: cddbd v1.4PL0 Copyright (c) Steve Scherf et al.
# Submitted via: Feurio! 1.62 - http://www.feurio.com
#
DISCID=f70daa10
DTITLE=Various Artist - A Sound Decade: Mammoth Records 1988-1998
DYEAR=1998
DGENRE=Mammoth Records
TTITLE0=Squirrel Nut Zippers - Hell
TTITLE1=Blake Babies - Star
TTITLE2=Far Too Jones - Close To You
TTITLE3=Seven Mary Three - Cumbersome
TTITLE4=Fu Manchu - Evil Eye
TTITLE5=Pure - Anna
TTITLE6=Victoria Williams - You R Loved
TTITLE7=Dillon Fence - Any Other Way
TTITLE8=The Backsliders - Throwin' Rocks At The Moon
TTITLE9=Jason And The Scorchers - Self Sabotage
TTITLE10=Machines Of Loving Grace - Butterfly Wings
TTITLE11=The Juliana Hatfield Three - My Sister
TTITLE12=Antenna - All I Need
TTITLE13=Chainsaw Kittens - Bloodstorm
TTITLE14=Vanilla Trainwreck - Yellow
TTITLE15=Joe Henry - Flower Girl
EXTD=559 255-2
EXTT0=
EXTT1=
EXTT2=
EXTT3=
EXTT4=
EXTT5=
EXTT6=
EXTT7=
EXTT8=
EXTT9=
EXTT10=
EXTT11=
EXTT12=
EXTT13=
EXTT14=
EXTT15=
PLAYORDER=
